<?xml version="1.0" encoding="UTF-8"?>
<svg width="24px" height="24px" viewBox="0 0 24 24" version="1.1" xmlns="http://www.w3.org/2000/svg" xmlns:xlink="http://www.w3.org/1999/xlink">
    <!-- Generator: Sketch 59.1 (86144) - https://sketch.com -->
    <title>a030_icon_transportation</title>
    <desc>Created with Sketch.</desc>
    <g id="IOS" stroke="none" stroke-width="1" fill="none" fill-rule="evenodd">
        <g id="a030购物订单(弹窗-物流信息)" transform="translate(-104.000000, -337.000000)">
            <rect fill="#F8F8F8" x="0" y="0" width="375" height="812"></rect>
            <g id="收货地址" transform="translate(0.000000, 320.000000)" fill="#FFFFFF">
                <rect id="矩形" x="0" y="0" width="375" height="257"></rect>
            </g>
            <g id="弹窗-待审核">
                <rect id="矩形" fill="#000000" opacity="0.300000012" x="0" y="0" width="375" height="812"></rect>
                <g id="弹窗" transform="translate(48.000000, 212.000000)">
                    <path d="M20,0 L259,0 C270.045695,-2.02906125e-15 279,8.954305 279,20 L279,302 C279,313.045695 270.045695,322 259,322 L20,322 C8.954305,322 1.3527075e-15,313.045695 0,302 L0,20 C-1.3527075e-15,8.954305 8.954305,2.02906125e-15 20,0 Z" id="Mask" fill="#FFFFFF"></path>
                    <rect id="矩形" fill="#353543" opacity="0.0799999982" x="68" y="89" width="1" height="200"></rect>
                    <g id="01" transform="translate(14.000000, 124.000000)">
                        <g id="编组-5">
                            <rect id="矩形" fill="#FFFFFF" x="42" y="2" width="24" height="24"></rect>
                            <g id="a030_icon_transportation" transform="translate(42.000000, 1.000000)">
                                <g>
                                    <g>
                                        <rect id="矩形" fill="#E9342A" x="0" y="0" width="24" height="24" rx="12"></rect>
                                        <g id="编组-7" transform="translate(6.000000, 7.000000)" stroke="#FFFFFF">
                                            <path d="M8,8.5 C8,9.32842712 8.67157288,10 9.5,10 C10.3284271,10 11,9.32842712 11,8.5" id="路径"></path>
                                            <path d="M9,2 L11,2 C12.1045695,2 13,2.8954305 13,4 L13,8 L13,8 L9,8 L9,2 Z" id="矩形"></path>
                                            <path d="M11,2 C12.1045695,2 13,2.8954305 13,4 L13,6 L13,6 L12,6 C11.4477153,6 11,5.55228475 11,5 L11,2 L11,2 Z" id="矩形"></path>
                                            <path d="M1,8.5 C1,9.32842712 1.67157288,10 2.5,10 C3.32842712,10 4,9.32842712 4,8.5" id="路径"></path>
                                            <path d="M2,0 L7,0 C8.1045695,-2.02906125e-16 9,0.8954305 9,2 L9,8 L9,8 L0,8 L0,2 C-1.3527075e-16,0.8954305 0.8954305,2.02906125e-16 2,0 Z" id="矩形"></path>
                                        </g>
                                    </g>
                                </g>
                            </g>
                        </g>
                    </g>
                </g>
            </g>
        </g>
    </g>
</svg>