<?xml version="1.0" encoding="UTF-8"?>
<svg width="120px" height="100px" viewBox="0 0 120 100" version="1.1" xmlns="http://www.w3.org/2000/svg" xmlns:xlink="http://www.w3.org/1999/xlink">
    <!-- Generator: Sketch 59.1 (86144) - https://sketch.com -->
    <title>a020_pic_nocoupun</title>
    <desc>Created with Sketch.</desc>
    <g id="IOS" stroke="none" stroke-width="1" fill="none" fill-rule="evenodd">
        <g id="a020购物订单(弹窗-优惠券)" transform="translate(-128.000000, -485.000000)">
            <g id="弹窗-立即购买">
                <g id="弹窗" transform="translate(0.000000, 352.000000)">
                    <g id="编组-14" transform="translate(128.000000, 133.000000)">
                        <g id="a020_pic_nocoupun">
                            <g>
                                <rect id="矩形" x="0" y="0" width="120" height="100"></rect>
                                <g id="编组-14" transform="translate(8.000000, 5.000000)">
                                    <g id="编组-5">
                                        <circle id="椭圆形" fill="#FFC2BF" cx="33.2568807" cy="2.98165138" r="1.60550459"></circle>
                                        <circle id="椭圆形复制-7" fill="#FFC2BF" cx="88.0733945" cy="27.9816514" r="1.37614679"></circle>
                                        <circle id="椭圆形" stroke="#FFC2BF" stroke-width="2" cx="84.4036697" cy="2.29357798" r="1.29357798"></circle>
                                        <circle id="椭圆形复制-4" stroke="#FFC2BF" stroke-width="3" cx="93.1192661" cy="65.5963303" r="1"></circle>
                                        <circle id="椭圆形复制-6" stroke="#FFC2BF" stroke-width="2" cx="1.60550459" cy="43.8073394" r="1"></circle>
                                        <circle id="椭圆形复制-5" stroke="#FFC2BF" stroke-width="2" cx="37.25" cy="87.75" r="1.25"></circle>
                                        <path d="M11.0091743,4.58715596 L11.0083028,8.71515596 L15.1376147,8.71559633 L15.1376147,9.63302752 L11.0083028,9.63215596 L11.0091743,13.7614679 L10.0917431,13.7614679 L10.0913028,9.63215596 L5.96330275,9.63302752 L5.96330275,8.71559633 L10.0913028,8.71515596 L10.0917431,4.58715596 L11.0091743,4.58715596 Z" id="形状结合" fill="#FFC2BF"></path>
                                        <path d="M5.68807339,67.8899083 L5.68786239,70.4579083 L8.25688073,70.4587156 L8.25688073,71.7431193 L5.68786239,71.7429083 L5.68807339,74.3119266 L4.40366972,74.3119266 L4.40286239,71.7429083 L1.83486239,71.7431193 L1.83486239,70.4587156 L4.40286239,70.4579083 L4.40366972,67.8899083 L5.68807339,67.8899083 Z" id="形状结合" fill="#FFC2BF"></path>
                                        <path d="M97.9816514,44.0366972 L97.9811284,46.0546972 L100,46.0550459 L100,47.0642202 L97.9811284,47.0636972 L97.9816514,49.0825688 L96.9724771,49.0825688 L96.9721284,47.0636972 L94.9541284,47.0642202 L94.9541284,46.0550459 L96.9721284,46.0546972 L96.9724771,44.0366972 L97.9816514,44.0366972 Z" id="形状结合" fill="#FFC2BF"></path>
                                    </g>
                                    <g id="编组-15" transform="translate(12.000000, 15.000000)">
                                        <g id="编组" transform="translate(56.394726, 32.308301) rotate(16.000000) translate(-56.394726, -32.308301) translate(41.394726, 11.308301)">
                                            <path d="M14.3403805,3.78048723 C15.6553239,3.78048723 16.6399646,3.17040377 17.3992179,1.84967784 C18.291243,0.297990874 19.9446368,-0.658542143 21.7344532,-0.65837371 L23.5591966,-0.658201986 C27.1286141,-0.658201986 30.0221987,2.23538262 30.0221987,5.80480013 L30.0221987,35.8513118 C30.0221987,39.4207293 27.1286141,42.3143139 23.5591966,42.3143139 L21.5422295,42.3143139 C19.7979426,42.3143088 18.1797364,41.4052933 17.2722332,39.9156726 C16.2733301,38.2760236 15.2914059,37.5338266 14.3403805,37.5338266 C13.3893559,37.5338266 12.4074325,38.2760224 11.4085328,39.9156645 C10.5010339,41.4052944 8.88282204,42.3143139 7.13852846,42.3143139 L5.80443975,42.3143139 C2.23502224,42.3143139 -0.658562368,39.4207293 -0.658562368,35.8513118 L-0.658562368,5.80480013 C-0.658562368,2.23538262 2.23502224,-0.658201986 5.80432858,-0.65820198 L6.94623681,-0.658328917 C8.73607773,-0.658535136 10.3895091,0.297993706 11.2815556,1.84969937 C12.0408077,3.17041053 13.0254443,3.78048723 14.3403805,3.78048723 Z" id="路径" stroke="#FFC2BF" stroke-width="2" fill="#FFFAFA"></path>
                                            <text id="¥" font-family="STYuanti-SC-Regular, Yuanti SC" font-size="20" font-weight="normal" letter-spacing="0.571428571" fill="#FFC2BF">
                                                <tspan x="10.4938214" y="28.3963567">¥</tspan>
                                            </text>
                                        </g>
                                        <g id="编组" transform="translate(23.716385, 29.965245) rotate(-12.000000) translate(-23.716385, -29.965245) translate(5.216385, 3.465245)">
                                            <path d="M18.1363636,5.04591032 C20.0021676,5.04591032 21.3928076,4.11757091 22.4170264,2.13609463 C23.2756337,0.47500698 24.9893382,-0.568178331 26.8592103,-0.568002365 L29.7954545,-0.567726041 C34.1635248,-0.567726041 37.7045455,2.97329457 37.7045455,7.34136487 L37.7045455,45.3413649 C37.7045455,49.7094352 34.1635248,53.2504558 29.7954545,53.2504558 L26.6400753,53.2504558 C24.846207,53.2504615 23.1898055,52.2894748 22.2994326,50.7321678 C20.9224963,48.3238368 19.5255768,47.2045455 18.1363636,47.2045455 C16.747149,47.2045455 15.3502279,48.3238392 13.9732861,50.7321828 C13.0829049,52.2894758 11.4265114,53.2504558 9.63265354,53.2504558 L7.34090909,53.2504558 C2.9728388,53.2504558 -0.568181818,49.7094352 -0.568181818,45.3413649 L-0.568181818,7.34136487 C-0.568181818,2.97329457 2.9728388,-0.567726041 7.34079793,-0.567726035 L9.4134385,-0.567956434 C11.2833376,-0.568175188 12.9970838,0.47500785 13.8557132,2.13611844 C14.8799317,4.11757874 16.2705673,5.04591032 18.1363636,5.04591032 Z" id="路径" stroke="#FFC2BF" stroke-width="2" fill="#FFFAFA"></path>
                                            <text id="¥" font-family="STYuanti-SC-Regular, Yuanti SC" font-size="24" font-weight="normal" letter-spacing="0.685714286" fill="#FFC2BF">
                                                <tspan x="12.5227273" y="35.2727273">¥</tspan>
                                            </text>
                                        </g>
                                    </g>
                                </g>
                            </g>
                        </g>
                    </g>
                </g>
            </g>
        </g>
    </g>
</svg>